<?xml version="1.0" encoding="UTF-8"?>
<!-- Generated by Pixelmator Pro 3.6.11 -->
<svg width="36" height="36" viewBox="0 0 36 36" xmlns="http://www.w3.org/2000/svg">
    <g id="g1">
        <path id="path1" fill="#000000" stroke="none" opacity="0" visibility="hidden" d="M 8.372634 36.770435 L -2.014698 14.525145 L 28.182564 0.424679 L 38.569897 22.669968 Z"/>
        <g id="path2">
            <path id="path3" fill="#ffffff" stroke="none" d="M 12.98346 7.105803 C 6.940744 9.92742 4.305604 17.044277 7.093145 23.014015 L 7.715456 24.064066 L 3.095857 22.840389 C 2.247423 23.236563 1.867289 24.210331 2.251281 25.032681 L 11.772006 28.328636 L 15.315426 18.933922 C 14.931433 18.111572 13.960114 17.767378 13.118684 18.160278 L 10.928273 22.867889 L 10.178558 21.573296 C 8.182018 17.297548 10.074957 12.185158 14.402976 10.164209 C 18.730995 8.143261 23.857651 9.977886 25.854191 14.253633 C 27.850739 18.529398 25.965527 23.636578 21.637506 25.657526 C 20.688086 26.100853 20.335098 27.022644 20.747122 27.905025 C 21.169462 28.809502 22.115246 29.15723 23.071722 28.710608 C 29.106153 25.892859 31.749048 18.770931 28.96208 12.80242 C 26.17454 6.832682 19.017893 4.288054 12.98346 7.105803 Z"/>
            <path id="path4" fill="#ffffff" stroke="none" d="M 7.093145 23.014015 C 4.305604 17.044277 6.940744 9.92742 12.98346 7.105803 C 19.017893 4.288054 26.17454 6.832682 28.96208 12.80242 C 31.749048 18.770931 29.106153 25.892859 23.071722 28.710608 C 22.115246 29.15723 21.169462 28.809502 20.747122 27.905025 C 20.335098 27.022644 20.688086 26.100853 21.637506 25.657526 C 25.965527 23.636578 27.850739 18.529398 25.854191 14.253633 C 23.857651 9.977886 18.730995 8.143261 14.402976 10.164209 C 10.074957 12.185158 8.182018 17.297548 10.178558 21.573296 L 10.928273 22.867889 L 13.118684 18.160278 C 13.960114 17.767378 14.931433 18.111572 15.315426 18.933922 L 11.772006 28.328636 L 2.251281 25.032681 C 1.867289 24.210331 2.247423 23.236563 3.095857 22.840389 L 7.715456 24.064066 L 7.093145 23.014015 Z M 13.151598 7.465883 C 18.991041 4.739183 25.909119 7.203541 28.601999 12.970557 C 31.294506 18.736769 28.742598 25.624027 22.903584 28.350527 C 22.153118 28.700954 21.439926 28.449446 21.107203 27.736889 C 20.787647 27.052536 21.056417 26.367453 21.805643 26.017607 C 26.330317 23.904831 28.30471 18.562336 26.214272 14.085496 C 24.12373 9.608438 18.759274 7.691466 14.234838 9.80413 C 9.708931 11.91748 7.728615 17.265827 9.818479 21.741434 L 10.584376 23.067045 L 11.288582 23.035538 L 13.413465 18.46876 C 13.972933 18.273104 14.57393 18.479046 14.879613 18.963308 L 11.536627 27.826611 L 2.553893 24.7169 C 2.382729 24.173252 2.622615 23.571922 3.143344 23.264076 L 7.613698 24.448219 L 8.057328 23.861456 L 7.435018 22.811405 C 4.759003 17.075987 7.30678 10.195092 13.151598 7.465883 Z"/>
        </g>
    </g>
    <path id="path5" fill="none" stroke="#000000" visibility="hidden" d="M 30 18 C 30 11.372583 24.627417 6 18 6 C 11.372583 6 6 11.372583 6 18 C 6 24.627417 11.372583 30 18 30 C 24.627417 30 30 24.627417 30 18 Z"/>
</svg>
