<?xml version="1.0" encoding="UTF-8"?>
<!-- Generated by Pixelmator Pro 3.6.10 -->
<svg width="512" height="512" viewBox="0 0 512 512" xmlns="http://www.w3.org/2000/svg">
    <path id="path1" fill="#ffffff" stroke="none" d="M 442.068176 212.381287 L 425.285248 212.381287 C 411.593933 212.381287 400.11087 200.566986 400.11087 186.544434 C 400.11087 179.477936 403.092072 173.073914 408.391937 168.326111 L 419.212494 157.726379 C 429.922638 147.126617 429.922638 129.791656 419.212494 119.191895 L 394.590179 94.790405 C 389.731964 89.93222 382.555054 87.061432 375.267731 87.061432 C 367.980408 87.061432 360.91394 89.93222 355.945313 94.790405 L 345.566406 105.169312 C 340.597778 110.690033 333.972931 113.671204 326.796021 113.671204 C 312.663025 113.671204 300.848755 102.188171 300.848755 88.607239 L 300.848755 71.713898 C 300.848755 56.808014 288.813629 44 273.797333 44 L 240.231476 44 C 225.215179 44 213.290466 56.697601 213.290466 71.713898 L 213.290466 88.496796 C 213.290466 102.077759 201.476181 113.560791 187.343201 113.560791 C 180.276688 113.560791 173.762268 110.57959 169.014465 105.390167 L 158.304321 94.790405 C 153.446106 89.821777 146.269211 87.061432 138.981873 87.061432 C 131.69455 87.061432 124.628067 89.93222 119.659439 94.790405 L 94.816299 119.081482 C 84.21656 129.681244 84.21656 147.016205 94.816299 157.505524 L 105.195213 167.88446 C 110.715904 172.853088 113.807495 179.477936 113.807495 186.544434 C 113.807495 200.677399 102.324448 212.381287 88.633118 212.381287 L 71.850189 212.381287 C 56.723484 212.381287 44.025879 224.195587 44.025879 239.211853 L 44.025879 255.994781 L 44.025879 272.77771 C 44.025879 287.683594 56.723484 299.608307 71.850189 299.608307 L 88.633118 299.608307 C 102.324448 299.608307 113.807495 311.422607 113.807495 325.44516 C 113.807495 332.511658 110.715904 339.136475 105.195213 344.105103 L 94.816299 354.373627 C 84.21656 364.973389 84.21656 382.30835 94.816299 392.797668 L 119.438614 417.30957 C 124.296822 422.278198 131.473724 425.038574 138.761047 425.038574 C 146.04837 425.038574 153.114868 422.167786 158.083496 417.30957 L 168.79364 406.709839 C 173.43103 401.520386 180.055862 398.539215 187.122375 398.539215 C 201.255341 398.539215 213.069641 410.022278 213.069641 423.603149 L 213.069641 440.386108 C 213.069641 455.291992 224.994339 468.100006 240.121063 468.100006 L 273.68689 468.100006 C 288.703217 468.100006 300.627899 455.402405 300.627899 440.386108 L 300.627899 423.603149 C 300.627899 410.022278 312.4422 398.539215 326.575195 398.539215 C 333.641663 398.539215 340.26651 401.630798 345.345551 407.041077 L 355.724457 417.420013 C 360.693085 422.278198 367.759613 425.148987 375.046906 425.148987 C 382.334229 425.148987 389.400726 422.278198 394.369354 417.420013 L 418.991669 392.908081 C 429.591431 382.30835 429.591431 364.973389 418.991669 354.373627 L 408.171082 343.773865 C 402.871216 339.026093 399.890045 332.511658 399.890045 325.555603 C 399.890045 311.422607 411.373108 299.718719 425.064453 299.718719 L 441.847351 299.718719 C 456.863647 299.718719 467.573822 287.904419 467.573822 272.888123 L 467.573822 255.994781 L 467.573822 239.211853 C 467.794617 224.195587 457.084503 212.381287 442.068176 212.381287 Z M 345.235138 255.994781 L 345.235138 255.994781 C 345.235138 304.687347 305.817383 344.325958 256.903961 344.325958 C 207.990601 344.325958 168.572815 304.687347 168.572815 255.994781 L 168.572815 255.994781 L 168.572815 255.994781 C 168.572815 207.302246 207.990601 167.663635 256.903961 167.663635 C 305.817383 167.663635 345.235138 207.302246 345.235138 255.994781 L 345.235138 255.994781 Z"/>
</svg>
