<?xml version="1.0" encoding="UTF-8"?>
<!-- Generated by Pixelmator Pro 3.6.10 -->
<svg width="512" height="512" viewBox="0 0 512 512" xmlns="http://www.w3.org/2000/svg">
    <path id="path1" fill="#ffffff" stroke="#ffffff" stroke-width="12" d="M 256 288.258057 C 270.25 288.258057 281.806458 276.70163 281.806458 262.451599 L 281.806458 81.806458 C 281.806458 67.556427 270.25 56 256 56 C 241.75 56 230.193542 67.556427 230.193542 81.806458 L 230.193542 262.451599 C 230.193542 276.72583 241.725815 288.258057 256 288.258057 Z M 375.112915 109.879028 C 363.887085 101.137085 347.669373 103.100006 338.887085 114.314514 C 330.104858 125.556458 332.082275 141.758057 343.309692 150.556458 C 378.016113 177.693542 397.935486 218.5 397.935486 262.451599 C 397.935486 340.701599 334.266113 404.387085 256 404.387085 C 177.733871 404.387085 114.064514 340.677429 114.064514 262.451599 C 114.064514 218.4758 133.975815 177.693542 168.677414 150.516144 C 179.903229 141.717743 181.8871 125.516144 173.099991 114.2742 C 164.30162 103.056458 148.100006 101.096771 136.874191 109.838715 C 89.580643 146.887115 62.451614 202.532257 62.451614 262.451599 C 62.451614 369.145142 149.306442 456 256 456 C 362.693542 456 449.548401 369.145142 449.548401 262.451599 C 449.548401 202.532257 422.451599 146.887115 375.112915 109.879028 Z"/>
</svg>
