<?xml version="1.0" encoding="UTF-8"?>
<!-- Generated by Pixelmator Pro 3.6.10 -->
<svg width="512" height="512" viewBox="0 0 512 512" xmlns="http://www.w3.org/2000/svg">
    <g id="g1">
        <path id="path1" fill="#ffffff" stroke="none" d="M 78.030769 56 L 433.969238 56 C 450.350861 56 463.630768 69.279938 463.630768 85.66153 L 463.630768 100.49231 C 463.630768 116.873901 450.350861 130.153839 433.969238 130.153839 L 78.030769 130.153839 C 61.649155 130.153839 48.369232 116.873901 48.369232 100.49231 L 48.369232 85.66153 C 48.369232 69.279938 61.649155 56 78.030769 56 Z"/>
    </g>
    <path id="path2" fill="#ffffff" fill-rule="evenodd" stroke="none" d="M 81.92289 170.117554 C 83.34005 168.51355 85.35585 167.603699 87.466507 167.615387 L 424.466858 167.615387 C 426.577515 167.603699 428.593323 168.51355 430.010468 170.117554 C 431.427612 171.721527 432.112244 173.868134 431.89325 176.020874 L 407.506805 416.448059 L 407.506805 416.647949 C 404.86615 439.658173 385.848816 456.999512 363.254822 457 L 148.734238 457 C 126.133186 457.009155 107.105164 439.665375 104.463669 416.647949 C 104.458672 416.578278 104.458672 416.50827 104.463669 416.438568 L 80.040123 176.020874 C 79.821106 173.868134 80.50573 171.721527 81.92289 170.117554 Z M 185.477448 345.065308 C 177.028122 353.514648 177.028122 367.213684 185.477448 375.663025 C 193.926773 384.112335 207.625824 384.112335 216.075134 375.663025 L 256.01001 335.728149 L 295.964417 375.642303 C 304.417999 384.087341 318.117096 384.080444 326.562103 375.626892 C 335.007172 367.173309 335.000275 353.474243 326.546722 345.029205 L 286.607697 305.130432 L 328.803467 262.934692 C 337.252808 254.485352 337.252808 240.786285 328.803467 232.337006 C 320.394104 223.927612 306.784485 223.887848 298.325958 232.217743 C 298.035217 232.466278 297.751495 232.728058 297.475555 233.002991 L 294.951355 235.591431 L 255.994598 274.548157 L 218.550812 237.14212 L 214.513504 233.002991 C 214.139832 232.630676 213.751892 232.282532 213.351532 231.958557 C 204.870697 223.915009 191.47374 224.054871 183.163879 232.373108 C 174.718826 240.826691 174.725723 254.525757 183.179306 262.970795 L 225.396896 305.145874 L 185.477448 345.065308 Z"/>
</svg>
